<mxfile host="app.diagrams.net" agent="Mozilla/5.0 (Windows NT 10.0; Win64; x64) AppleWebKit/537.36 (KHTML, like Gecko) Chrome/135.0.0.0 Safari/537.36" version="26.2.9">
  <diagram name="Page-1" id="vNMTiJygQwtSPQRgH461">
    <mxGraphModel dx="2279" dy="711" grid="0" gridSize="1" guides="1" tooltips="1" connect="1" arrows="0" fold="1" page="1" pageScale="1" pageWidth="850" pageHeight="1100" math="0" shadow="0">
      <root>
        <mxCell id="0" />
        <mxCell id="1" parent="0" />
        <mxCell id="dOVckEoWF7wwF2QDqWlX-2" style="rounded=0;orthogonalLoop=1;jettySize=auto;html=1;exitX=0;exitY=0.5;exitDx=0;exitDy=0;exitPerimeter=0;strokeWidth=2;endArrow=none;startFill=0;shadow=1;fontSize=24;" edge="1" parent="1">
          <mxGeometry relative="1" as="geometry">
            <mxPoint x="-796" y="463" as="targetPoint" />
            <mxPoint x="-490" y="464" as="sourcePoint" />
          </mxGeometry>
        </mxCell>
        <mxCell id="dOVckEoWF7wwF2QDqWlX-41" style="rounded=0;orthogonalLoop=1;jettySize=auto;html=1;exitX=0.7;exitY=1;exitDx=0;exitDy=0;exitPerimeter=0;strokeWidth=2;endArrow=none;startFill=0;fontSize=24;" edge="1" parent="1" source="dOVckEoWF7wwF2QDqWlX-3">
          <mxGeometry relative="1" as="geometry">
            <mxPoint x="-501" y="609" as="targetPoint" />
            <mxPoint x="-501.5" y="549" as="sourcePoint" />
          </mxGeometry>
        </mxCell>
        <mxCell id="dOVckEoWF7wwF2QDqWlX-3" value="" style="verticalLabelPosition=bottom;shadow=1;dashed=0;align=center;html=1;verticalAlign=top;shape=mxgraph.electrical.mosfets1.mosfet_p_no_bulk;fontSize=24;strokeWidth=2;" vertex="1" parent="1">
          <mxGeometry x="-568" y="414" width="95" height="100" as="geometry" />
        </mxCell>
        <mxCell id="dOVckEoWF7wwF2QDqWlX-4" style="rounded=0;orthogonalLoop=1;jettySize=auto;html=1;exitX=0;exitY=0.5;exitDx=0;exitDy=0;exitPerimeter=0;strokeWidth=2;endArrow=none;startFill=0;shadow=1;fontSize=24;" edge="1" parent="1">
          <mxGeometry relative="1" as="geometry">
            <mxPoint x="-797" y="319" as="targetPoint" />
            <mxPoint x="-490" y="319" as="sourcePoint" />
          </mxGeometry>
        </mxCell>
        <mxCell id="dOVckEoWF7wwF2QDqWlX-5" value="" style="verticalLabelPosition=bottom;shadow=1;dashed=0;align=center;html=1;verticalAlign=top;shape=mxgraph.electrical.mosfets1.mosfet_p_no_bulk;fontSize=24;strokeWidth=2;" vertex="1" parent="1">
          <mxGeometry x="-568" y="269" width="95" height="100" as="geometry" />
        </mxCell>
        <mxCell id="dOVckEoWF7wwF2QDqWlX-42" style="edgeStyle=orthogonalEdgeStyle;rounded=0;orthogonalLoop=1;jettySize=auto;html=1;exitX=0;exitY=0.5;exitDx=0;exitDy=0;exitPerimeter=0;endArrow=none;startFill=0;strokeWidth=2;fontSize=24;" edge="1" parent="1" source="dOVckEoWF7wwF2QDqWlX-7">
          <mxGeometry relative="1" as="geometry">
            <mxPoint x="-744" y="319" as="targetPoint" />
          </mxGeometry>
        </mxCell>
        <mxCell id="dOVckEoWF7wwF2QDqWlX-7" value="" style="verticalLabelPosition=bottom;shadow=1;dashed=0;align=center;html=1;verticalAlign=top;shape=mxgraph.electrical.mosfets1.mosfet_n_no_bulk;fontSize=24;strokeWidth=2;perimeterSpacing=0;gradientColor=none;" vertex="1" parent="1">
          <mxGeometry x="-708.9999999999998" y="651" width="95" height="100" as="geometry" />
        </mxCell>
        <mxCell id="dOVckEoWF7wwF2QDqWlX-43" style="edgeStyle=orthogonalEdgeStyle;rounded=0;orthogonalLoop=1;jettySize=auto;html=1;exitX=0;exitY=0.5;exitDx=0;exitDy=0;exitPerimeter=0;strokeWidth=2;endArrow=none;startFill=0;fontSize=24;" edge="1" parent="1" source="dOVckEoWF7wwF2QDqWlX-9">
          <mxGeometry relative="1" as="geometry">
            <mxPoint x="-575" y="463" as="targetPoint" />
          </mxGeometry>
        </mxCell>
        <mxCell id="dOVckEoWF7wwF2QDqWlX-9" value="" style="verticalLabelPosition=bottom;shadow=1;dashed=0;align=center;html=1;verticalAlign=top;shape=mxgraph.electrical.mosfets1.mosfet_n_no_bulk;fontSize=24;strokeWidth=2;" vertex="1" parent="1">
          <mxGeometry x="-421" y="651" width="89" height="100" as="geometry" />
        </mxCell>
        <mxCell id="dOVckEoWF7wwF2QDqWlX-10" value="V&lt;sub&gt;ss&lt;/sub&gt;" style="pointerEvents=1;verticalLabelPosition=bottom;shadow=1;dashed=0;align=center;html=1;verticalAlign=top;shape=mxgraph.electrical.signal_sources.vss2;fontSize=24;flipV=1;strokeWidth=2;" vertex="1" parent="1">
          <mxGeometry x="-529" y="770.5" width="57" height="36.5" as="geometry" />
        </mxCell>
        <mxCell id="dOVckEoWF7wwF2QDqWlX-11" value="V&lt;sub&gt;dd&lt;/sub&gt;" style="verticalLabelPosition=top;verticalAlign=bottom;shape=mxgraph.electrical.signal_sources.vdd;shadow=1;dashed=0;align=center;strokeWidth=2;fontSize=24;html=1;flipV=1;" vertex="1" parent="1">
          <mxGeometry x="-531" y="229" width="59" height="40" as="geometry" />
        </mxCell>
        <mxCell id="dOVckEoWF7wwF2QDqWlX-12" value="a" style="text;html=1;align=center;verticalAlign=top;resizable=0;points=[];autosize=1;strokeColor=none;fillColor=none;fontSize=24;strokeWidth=2;shadow=1;" vertex="1" parent="1">
          <mxGeometry x="-831" y="296" width="31" height="41" as="geometry" />
        </mxCell>
        <mxCell id="dOVckEoWF7wwF2QDqWlX-13" value="b" style="text;html=1;align=center;verticalAlign=top;resizable=0;points=[];autosize=1;strokeColor=none;fillColor=none;fontSize=24;strokeWidth=2;shadow=1;" vertex="1" parent="1">
          <mxGeometry x="-831" y="441" width="31" height="41" as="geometry" />
        </mxCell>
        <mxCell id="dOVckEoWF7wwF2QDqWlX-17" style="edgeStyle=orthogonalEdgeStyle;rounded=0;orthogonalLoop=1;jettySize=auto;html=1;exitX=0.7;exitY=1;exitDx=0;exitDy=0;exitPerimeter=0;entryX=0.7;entryY=0;entryDx=0;entryDy=0;entryPerimeter=0;endArrow=none;startFill=0;strokeWidth=2;shadow=1;fontSize=24;" edge="1" parent="1" source="dOVckEoWF7wwF2QDqWlX-5" target="dOVckEoWF7wwF2QDqWlX-3">
          <mxGeometry relative="1" as="geometry" />
        </mxCell>
        <mxCell id="dOVckEoWF7wwF2QDqWlX-19" value="" style="verticalLabelPosition=bottom;shadow=0;dashed=0;align=center;html=1;verticalAlign=top;shape=mxgraph.electrical.mosfets1.mosfet_p_no_bulk;labelBackgroundColor=none;textShadow=1;strokeWidth=2;fontSize=24;" vertex="1" parent="1">
          <mxGeometry x="-214" y="381" width="95" height="100" as="geometry" />
        </mxCell>
        <mxCell id="dOVckEoWF7wwF2QDqWlX-20" value="" style="verticalLabelPosition=bottom;shadow=0;dashed=0;align=center;html=1;verticalAlign=top;shape=mxgraph.electrical.mosfets1.mosfet_n_no_bulk;labelBackgroundColor=none;textShadow=1;strokeWidth=2;fontSize=24;" vertex="1" parent="1">
          <mxGeometry x="-214" y="623" width="95" height="100" as="geometry" />
        </mxCell>
        <mxCell id="dOVckEoWF7wwF2QDqWlX-21" style="edgeStyle=orthogonalEdgeStyle;rounded=0;orthogonalLoop=1;jettySize=auto;html=1;exitX=0.7;exitY=1;exitDx=0;exitDy=0;exitPerimeter=0;entryX=0.7;entryY=0;entryDx=0;entryDy=0;entryPerimeter=0;endArrow=none;startFill=0;labelBackgroundColor=none;textShadow=1;strokeWidth=2;fontSize=24;" edge="1" parent="1" source="dOVckEoWF7wwF2QDqWlX-19" target="dOVckEoWF7wwF2QDqWlX-20">
          <mxGeometry relative="1" as="geometry" />
        </mxCell>
        <mxCell id="dOVckEoWF7wwF2QDqWlX-22" style="edgeStyle=orthogonalEdgeStyle;rounded=0;orthogonalLoop=1;jettySize=auto;html=1;exitX=0;exitY=0.5;exitDx=0;exitDy=0;exitPerimeter=0;entryX=0;entryY=0.5;entryDx=0;entryDy=0;entryPerimeter=0;endArrow=none;startFill=0;labelBackgroundColor=none;textShadow=1;strokeWidth=2;fontSize=24;" edge="1" parent="1" source="dOVckEoWF7wwF2QDqWlX-19" target="dOVckEoWF7wwF2QDqWlX-20">
          <mxGeometry relative="1" as="geometry" />
        </mxCell>
        <mxCell id="dOVckEoWF7wwF2QDqWlX-24" style="edgeStyle=none;rounded=0;orthogonalLoop=1;jettySize=auto;html=1;endArrow=none;startFill=0;labelBackgroundColor=none;textShadow=1;strokeWidth=2;fontSize=24;" edge="1" parent="1">
          <mxGeometry relative="1" as="geometry">
            <mxPoint x="-148" y="551" as="targetPoint" />
            <mxPoint x="-38" y="551" as="sourcePoint" />
          </mxGeometry>
        </mxCell>
        <mxCell id="dOVckEoWF7wwF2QDqWlX-28" value="y" style="text;html=1;align=center;verticalAlign=middle;resizable=0;points=[];autosize=1;strokeColor=none;fillColor=none;labelBackgroundColor=none;textShadow=1;strokeWidth=2;fontSize=24;" vertex="1" parent="1">
          <mxGeometry x="-41" y="529" width="30" height="41" as="geometry" />
        </mxCell>
        <mxCell id="dOVckEoWF7wwF2QDqWlX-38" style="edgeStyle=orthogonalEdgeStyle;rounded=0;orthogonalLoop=1;jettySize=auto;html=1;exitX=0.7;exitY=1;exitDx=0;exitDy=0;exitPerimeter=0;entryX=0.7;entryY=1;entryDx=0;entryDy=0;entryPerimeter=0;endArrow=none;startFill=0;strokeWidth=2;fontSize=24;" edge="1" parent="1" source="dOVckEoWF7wwF2QDqWlX-7" target="dOVckEoWF7wwF2QDqWlX-9">
          <mxGeometry relative="1" as="geometry" />
        </mxCell>
        <mxCell id="dOVckEoWF7wwF2QDqWlX-39" style="edgeStyle=orthogonalEdgeStyle;rounded=0;orthogonalLoop=1;jettySize=auto;html=1;exitX=0.7;exitY=1;exitDx=0;exitDy=0;exitPerimeter=0;entryX=0.7;entryY=1;entryDx=0;entryDy=0;entryPerimeter=0;endArrow=none;startFill=0;strokeWidth=2;fontSize=24;" edge="1" parent="1" source="dOVckEoWF7wwF2QDqWlX-20" target="dOVckEoWF7wwF2QDqWlX-9">
          <mxGeometry relative="1" as="geometry" />
        </mxCell>
        <mxCell id="dOVckEoWF7wwF2QDqWlX-44" style="edgeStyle=orthogonalEdgeStyle;rounded=0;orthogonalLoop=1;jettySize=auto;html=1;exitX=0.7;exitY=0;exitDx=0;exitDy=0;exitPerimeter=0;entryX=0.7;entryY=0;entryDx=0;entryDy=0;entryPerimeter=0;strokeWidth=2;endArrow=none;startFill=0;fontSize=24;" edge="1" parent="1" source="dOVckEoWF7wwF2QDqWlX-7" target="dOVckEoWF7wwF2QDqWlX-9">
          <mxGeometry relative="1" as="geometry">
            <Array as="points">
              <mxPoint x="-642" y="608" />
              <mxPoint x="-359" y="608" />
            </Array>
          </mxGeometry>
        </mxCell>
        <mxCell id="dOVckEoWF7wwF2QDqWlX-45" style="edgeStyle=orthogonalEdgeStyle;rounded=0;orthogonalLoop=1;jettySize=auto;html=1;exitX=0.7;exitY=0;exitDx=0;exitDy=0;exitPerimeter=0;entryX=0.485;entryY=0.297;entryDx=0;entryDy=0;entryPerimeter=0;endArrow=none;startFill=0;strokeWidth=2;fontSize=24;" edge="1" parent="1" source="dOVckEoWF7wwF2QDqWlX-19" target="dOVckEoWF7wwF2QDqWlX-11">
          <mxGeometry relative="1" as="geometry">
            <Array as="points">
              <mxPoint x="-148" y="257" />
            </Array>
          </mxGeometry>
        </mxCell>
        <mxCell id="dOVckEoWF7wwF2QDqWlX-46" style="edgeStyle=none;rounded=0;orthogonalLoop=1;jettySize=auto;html=1;endArrow=none;startFill=0;labelBackgroundColor=none;textShadow=1;strokeWidth=2;fontSize=24;" edge="1" parent="1">
          <mxGeometry relative="1" as="geometry">
            <mxPoint x="-501" y="550" as="targetPoint" />
            <mxPoint x="-235" y="550" as="sourcePoint" />
          </mxGeometry>
        </mxCell>
      </root>
    </mxGraphModel>
  </diagram>
</mxfile>
